<?xml version="1.0" encoding="utf-8"?>
<!-- Generator: Adobe Illustrator 16.0.0, SVG Export Plug-In . SVG Version: 6.00 Build 0)  -->
<!DOCTYPE svg PUBLIC "-//W3C//DTD SVG 1.1//EN" "http://www.w3.org/Graphics/SVG/1.1/DTD/svg11.dtd">
<svg version="1.1" id="Layer_2" xmlns="http://www.w3.org/2000/svg" xmlns:xlink="http://www.w3.org/1999/xlink" x="0px" y="0px"
	 width="623.622px" height="623.622px" viewBox="0 0 623.622 623.622" enable-background="new 0 0 623.622 623.622"
	 xml:space="preserve">
<g>
	<linearGradient id="SVGID_1_" gradientUnits="userSpaceOnUse" x1="19.2622" y1="170.0024" x2="319.1567" y2="170.0024">
		<stop  offset="0" style="stop-color:#FFF33B"/>
		<stop  offset="0.0595" style="stop-color:#FFE029"/>
		<stop  offset="0.1303" style="stop-color:#FFD218"/>
		<stop  offset="0.2032" style="stop-color:#FEC90F"/>
		<stop  offset="0.2809" style="stop-color:#FDC70C"/>
		<stop  offset="0.6685" style="stop-color:#F3903F"/>
		<stop  offset="0.8876" style="stop-color:#ED683C"/>
		<stop  offset="1" style="stop-color:#E93E3A"/>
	</linearGradient>
	<polygon fill="url(#SVGID_1_)" points="319.157,321.193 72.177,321.193 19.262,265.72 19.616,18.811 266.616,18.811 319.157,72.18 
			"/>
	<g>
		
			<polygon fill="none" stroke="#000000" stroke-width="20.7047" stroke-linecap="round" stroke-linejoin="round" stroke-miterlimit="10" points="
			321.573,321.193 72.398,321.193 19.404,267.863 19.404,18.811 268.557,18.811 321.573,72.18 		"/>
		
			<polyline fill="none" stroke="#000000" stroke-width="20.7047" stroke-linecap="round" stroke-linejoin="round" stroke-miterlimit="10" points="
			19.404,267.863 268.557,267.863 268.557,18.811 		"/>
		
			<line fill="none" stroke="#000000" stroke-width="20.7047" stroke-linecap="round" stroke-linejoin="round" stroke-miterlimit="10" x1="268.174" y1="267.833" x2="321.573" y2="321.193"/>
		
			<polygon fill="none" stroke="#000000" stroke-width="20.7047" stroke-linecap="round" stroke-linejoin="round" stroke-miterlimit="10" points="
			375.326,89.973 375.326,374.561 90.565,374.561 90.211,552.442 552.934,552.442 552.934,89.963 		"/>
		
			<polyline fill="none" stroke="#000000" stroke-width="20.7047" stroke-linecap="round" stroke-linejoin="round" stroke-miterlimit="10" points="
			552.934,89.963 606.333,143.322 606.333,605.811 143.602,605.811 90.211,552.442 		"/>
		
			<line fill="none" stroke="#000000" stroke-width="20.7047" stroke-linecap="round" stroke-linejoin="round" stroke-miterlimit="10" x1="552.934" y1="552.442" x2="606.333" y2="605.811"/>
	</g>
</g>
<g>
</g>
<g>
</g>
<g>
</g>
<g>
</g>
<g>
</g>
<g>
</g>
</svg>
