<?xml version="1.0" encoding="utf-8"?>
<!-- Generator: Adobe Illustrator 16.0.0, SVG Export Plug-In . SVG Version: 6.00 Build 0)  -->
<!DOCTYPE svg PUBLIC "-//W3C//DTD SVG 1.1//EN" "http://www.w3.org/Graphics/SVG/1.1/DTD/svg11.dtd">
<svg version="1.1" id="Layer_1" xmlns="http://www.w3.org/2000/svg" xmlns:xlink="http://www.w3.org/1999/xlink" x="0px" y="0px"
	 width="880px" height="260px" viewBox="0 0 880 260" enable-background="new 0 0 880 260" xml:space="preserve">
<g id="Layer_6" fill="#E5DEFF">
	<g>
		<path d="M20.005,200v-20h40V80h-40V60h20V40h20V20h40v160h40v20H20.005z"/>
		<path d="M160.003,200v-20h20V40h-20V20h120v20h20v60h-20v20h20v60h-20v20H160.003z M220.003,100h40V40h-40V100z
			 M220.003,180h40v-60h-40V180z"/>
	</g>
	<g>
		<path d="M320.005,200v-20h20v-80h-20V80h60v100h20v20H320.005z M340.005,60V20h40v40H340.005z"/>
	</g>
	<g>
		<path d="M400.005,100V80h40V40h20V20h20v60h40v20h-40v80h20v-20h40v20h-20v20h-60v-20h-20v-80H400.005z"/>
		<path d="M560.003,180v-20h40v20h60v-20h-40v-20h-40v-20h-20v-20h20V80h100v20h20v20h-40v-20h-60v20h40v20h40v20h20
			v20h-20v20h-100v-20H560.003z"/>
		<path d="M720,240v-20h80v-20h20v-20h-80v-20h-20V80h40v80h60V80h40v120h-20v20h-20v20H720z"/>
	</g>
</g>
</svg>
