<?xml version="1.0" encoding="utf-8"?>
<!-- Generator: Adobe Illustrator 16.0.0, SVG Export Plug-In . SVG Version: 6.00 Build 0)  -->
<!DOCTYPE svg PUBLIC "-//W3C//DTD SVG 1.1//EN" "http://www.w3.org/Graphics/SVG/1.1/DTD/svg11.dtd">
<svg version="1.1" xmlns="http://www.w3.org/2000/svg" xmlns:xlink="http://www.w3.org/1999/xlink" x="0px" y="0px" width="440px"
	 height="440px" viewBox="0 0 440 440" enable-background="new 0 0 440 440" xml:space="preserve">
<g id="Layer_1">
</g>
<g id="Layer_2">
	<rect x="170" y="370" width="100" height="20"/>
	<rect x="130" y="350" width="40" height="20"/>
	<rect x="270" y="350" width="40" height="20"/>
	<rect x="110" y="290" width="20" height="60"/>
	<rect x="310" y="290" width="20" height="60"/>
	<rect x="90" y="270" width="20" height="20"/>
	<rect x="330" y="270" width="20" height="20"/>
	<rect x="70" y="230" width="20" height="40"/>
	<rect x="350" y="230" width="20" height="40"/>
	<rect x="50" y="130" width="20" height="100"/>
	<rect x="370" y="130" width="20" height="100"/>
	<rect x="70" y="90" width="20" height="40"/>
	<rect x="350" y="90" width="20" height="40"/>
	<rect x="90" y="70" width="40" height="20"/>
	<rect x="310" y="70" width="40" height="20"/>
	<rect x="130" y="50" width="180" height="20"/>
	<rect x="210" y="230" width="20" height="20"/>
	<rect x="130" y="170" width="20" height="60"/>
	<rect x="290" y="210" width="20" height="20"/>
	<rect x="270" y="190" width="20" height="20"/>
	<rect x="310" y="190" width="20" height="20"/>
	<rect x="290" y="170" width="20" height="20"/>
	<rect x="210" y="290" width="20" height="20"/>
	<rect x="170" y="290" width="20" height="20"/>
	<rect x="250" y="290" width="20" height="20"/>
</g>
<g id="Layer_4">
</g>
</svg>
