<?xml version="1.0" encoding="utf-8"?>
<!-- Generator: Adobe Illustrator 16.0.0, SVG Export Plug-In . SVG Version: 6.00 Build 0)  -->
<!DOCTYPE svg PUBLIC "-//W3C//DTD SVG 1.1//EN" "http://www.w3.org/Graphics/SVG/1.1/DTD/svg11.dtd">
<svg version="1.1" xmlns="http://www.w3.org/2000/svg" xmlns:xlink="http://www.w3.org/1999/xlink" x="0px" y="0px" width="1320px"
	 height="460px" viewBox="0 0 1320 460" enable-background="new 0 0 1320 460" xml:space="preserve">
<g id="Layer_1">
</g>
<g id="Layer_2">
	<rect x="170" y="370" fill="#FFFFFF" width="100" height="20"/>
	<rect x="130" y="350" fill="#FFFFFF" width="40" height="20"/>
	<rect x="270" y="350" fill="#FFFFFF" width="40" height="20"/>
	<rect x="110" y="290" fill="#FFFFFF" width="20" height="60"/>
	<rect x="310" y="290" fill="#FFFFFF" width="20" height="60"/>
	<rect x="90" y="270" fill="#FFFFFF" width="20" height="20"/>
	<rect x="330" y="270" fill="#FFFFFF" width="20" height="20"/>
	<rect x="70" y="230" fill="#FFFFFF" width="20" height="40"/>
	<rect x="350" y="230" fill="#FFFFFF" width="20" height="40"/>
	<rect x="50" y="130" fill="#FFFFFF" width="20" height="100"/>
	<rect x="370" y="130" fill="#FFFFFF" width="20" height="100"/>
	<rect x="70" y="90" fill="#FFFFFF" width="20" height="40"/>
	<rect x="350" y="90" fill="#FFFFFF" width="20" height="40"/>
	<rect x="90" y="70" fill="#FFFFFF" width="40" height="20"/>
	<rect x="310" y="70" fill="#FFFFFF" width="40" height="20"/>
	<rect x="130" y="50" fill="#FFFFFF" width="180" height="20"/>
	<rect x="210" y="230" fill="#FFFFFF" width="20" height="20"/>
	<rect x="130" y="170" fill="#FFFFFF" width="20" height="60"/>
	<rect x="290" y="210" fill="#FFFFFF" width="20" height="20"/>
	<rect x="270" y="190" fill="#FFFFFF" width="20" height="20"/>
	<rect x="310" y="190" fill="#FFFFFF" width="20" height="20"/>
	<rect x="290" y="170" fill="#FFFFFF" width="20" height="20"/>
	<rect x="210" y="290" fill="#FFFFFF" width="20" height="20"/>
	<rect x="170" y="290" fill="#FFFFFF" width="20" height="20"/>
	<rect x="250" y="290" fill="#FFFFFF" width="20" height="20"/>
</g>
<g id="Layer_6">
	<g>
		<path fill="#FFFFFF" d="M430,370v-20h40V250h-40v-20h20v-20h20v-20h40v160h40v20H430z"/>
		<path fill="#FFFFFF" d="M569.998,370v-20h20V210h-20v-20h120v20h20v60h-20v20h20v60h-20v20H569.998z M629.998,270h40v-60h-40V270z
			 M629.998,350h40v-60h-40V350z"/>
	</g>
	<g>
		<path fill="#FFFFFF" d="M730,370v-20h20v-80h-20v-20h60v100h20v20H730z M750,230v-40h40v40H750z"/>
	</g>
	<g>
		<path fill="#FFFFFF" d="M810,270v-20h40v-40h20v-20h20v60h40v20h-40v80h20v-20h40v20h-20v20h-60v-20h-20v-80H810z"/>
		<path fill="#FFFFFF" d="M969.998,350v-20h40v20h60v-20h-40v-20h-40v-20h-20v-20h20v-20h100v20h20v20h-40v-20h-60v20h40v20h40v20
			h20v20h-20v20h-100v-20H969.998z"/>
		<path fill="#FFFFFF" d="M1129.995,410v-20h80v-20h20v-20h-80v-20h-20v-80h40v80h60v-80h40v120h-20v20h-20v20H1129.995z"/>
	</g>
	<g>
	</g>
	<g>
	</g>
	<g>
	</g>
	<g>
	</g>
	<g>
	</g>
	<g>
	</g>
	<g>
	</g>
	<g>
	</g>
	<g>
	</g>
	<g>
	</g>
	<g>
	</g>
	<g>
	</g>
	<g>
	</g>
	<g>
	</g>
	<g>
	</g>
</g>
</svg>
