<svg xmlns="http://www.w3.org/2000/svg" version="1.1" xmlns:xlink="http://www.w3.org/1999/xlink" stroke-linecap="round" stroke-linejoin="round" stroke-width="0" fill-rule="evenodd" width="36.525mm" height="16.205mm" viewBox="101117.5 -53822.5 36525 16205" id="1bitsy-rr.drl">
  <defs>
    <circle cx="0" cy="0" r="125" id="1bitsy-rr.drl_pad-1"/>
    <circle cx="0" cy="0" r="150" id="1bitsy-rr.drl_pad-2"/>
    <circle cx="0" cy="0" r="482.5" id="1bitsy-rr.drl_pad-3"/>
  </defs>
  <g transform="translate(0,-91440) scale(1,-1)" fill="currentColor" stroke="currentColor">
    <use xlink:href="#1bitsy-rr.drl_pad-1" x="103130" y="-45720"/>
    <use xlink:href="#1bitsy-rr.drl_pad-1" x="103130" y="-44220"/>
    <use xlink:href="#1bitsy-rr.drl_pad-1" x="103130" y="-47220"/>
    <use xlink:href="#1bitsy-rr.drl_pad-1" x="105530" y="-49470"/>
    <use xlink:href="#1bitsy-rr.drl_pad-1" x="105580" y="-45370"/>
    <use xlink:href="#1bitsy-rr.drl_pad-1" x="105930" y="-43820"/>
    <use xlink:href="#1bitsy-rr.drl_pad-1" x="106180" y="-47470"/>
    <use xlink:href="#1bitsy-rr.drl_pad-1" x="107355" y="-47470"/>
    <use xlink:href="#1bitsy-rr.drl_pad-1" x="107780" y="-40970"/>
    <use xlink:href="#1bitsy-rr.drl_pad-1" x="107930" y="-49470"/>
    <use xlink:href="#1bitsy-rr.drl_pad-1" x="108480" y="-40970"/>
    <use xlink:href="#1bitsy-rr.drl_pad-1" x="110530" y="-49370"/>
    <use xlink:href="#1bitsy-rr.drl_pad-1" x="111475" y="-47271"/>
    <use xlink:href="#1bitsy-rr.drl_pad-1" x="111480" y="-47870"/>
    <use xlink:href="#1bitsy-rr.drl_pad-1" x="111580" y="-43320"/>
    <use xlink:href="#1bitsy-rr.drl_pad-1" x="111580" y="-43970"/>
    <use xlink:href="#1bitsy-rr.drl_pad-1" x="111580" y="-44720"/>
    <use xlink:href="#1bitsy-rr.drl_pad-1" x="111680" y="-49370"/>
    <use xlink:href="#1bitsy-rr.drl_pad-1" x="112030" y="-42370"/>
    <use xlink:href="#1bitsy-rr.drl_pad-1" x="113230" y="-40020"/>
    <use xlink:href="#1bitsy-rr.drl_pad-1" x="116250" y="-40900"/>
    <use xlink:href="#1bitsy-rr.drl_pad-1" x="116430" y="-50021"/>
    <use xlink:href="#1bitsy-rr.drl_pad-1" x="117552" y="-46621"/>
    <use xlink:href="#1bitsy-rr.drl_pad-1" x="117630" y="-43020"/>
    <use xlink:href="#1bitsy-rr.drl_pad-1" x="117630" y="-43920"/>
    <use xlink:href="#1bitsy-rr.drl_pad-1" x="117630" y="-44820"/>
    <use xlink:href="#1bitsy-rr.drl_pad-1" x="117630" y="-47520"/>
    <use xlink:href="#1bitsy-rr.drl_pad-1" x="117630" y="-48120"/>
    <use xlink:href="#1bitsy-rr.drl_pad-1" x="117889" y="-49716"/>
    <use xlink:href="#1bitsy-rr.drl_pad-1" x="118216" y="-42548"/>
    <use xlink:href="#1bitsy-rr.drl_pad-1" x="118430" y="-43470"/>
    <use xlink:href="#1bitsy-rr.drl_pad-1" x="118430" y="-44370"/>
    <use xlink:href="#1bitsy-rr.drl_pad-1" x="118430" y="-45270"/>
    <use xlink:href="#1bitsy-rr.drl_pad-1" x="118430" y="-47070"/>
    <use xlink:href="#1bitsy-rr.drl_pad-1" x="118430" y="-47970"/>
    <use xlink:href="#1bitsy-rr.drl_pad-1" x="118430" y="-46170"/>
    <use xlink:href="#1bitsy-rr.drl_pad-1" x="118680" y="-50470"/>
    <use xlink:href="#1bitsy-rr.drl_pad-1" x="118730" y="-41920"/>
    <use xlink:href="#1bitsy-rr.drl_pad-1" x="118730" y="-49520"/>
    <use xlink:href="#1bitsy-rr.drl_pad-1" x="119180" y="-42720"/>
    <use xlink:href="#1bitsy-rr.drl_pad-1" x="119630" y="-41920"/>
    <use xlink:href="#1bitsy-rr.drl_pad-1" x="119630" y="-49520"/>
    <use xlink:href="#1bitsy-rr.drl_pad-1" x="120080" y="-42720"/>
    <use xlink:href="#1bitsy-rr.drl_pad-1" x="120080" y="-48720"/>
    <use xlink:href="#1bitsy-rr.drl_pad-1" x="120530" y="-49520"/>
    <use xlink:href="#1bitsy-rr.drl_pad-1" x="120530" y="-41920"/>
    <use xlink:href="#1bitsy-rr.drl_pad-1" x="120980" y="-42711"/>
    <use xlink:href="#1bitsy-rr.drl_pad-1" x="120980" y="-48720"/>
    <use xlink:href="#1bitsy-rr.drl_pad-1" x="121230" y="-45720"/>
    <use xlink:href="#1bitsy-rr.drl_pad-1" x="121430" y="-41920"/>
    <use xlink:href="#1bitsy-rr.drl_pad-1" x="121430" y="-49520"/>
    <use xlink:href="#1bitsy-rr.drl_pad-1" x="121880" y="-48720"/>
    <use xlink:href="#1bitsy-rr.drl_pad-1" x="121889" y="-42770"/>
    <use xlink:href="#1bitsy-rr.drl_pad-1" x="122330" y="-49520"/>
    <use xlink:href="#1bitsy-rr.drl_pad-1" x="122780" y="-41920"/>
    <use xlink:href="#1bitsy-rr.drl_pad-1" x="122780" y="-42720"/>
    <use xlink:href="#1bitsy-rr.drl_pad-1" x="122780" y="-48720"/>
    <use xlink:href="#1bitsy-rr.drl_pad-1" x="123230" y="-43220"/>
    <use xlink:href="#1bitsy-rr.drl_pad-1" x="123681" y="-42722"/>
    <use xlink:href="#1bitsy-rr.drl_pad-1" x="123930" y="-43995"/>
    <use xlink:href="#1bitsy-rr.drl_pad-1" x="124430" y="-44370"/>
    <use xlink:href="#1bitsy-rr.drl_pad-1" x="124430" y="-45270"/>
    <use xlink:href="#1bitsy-rr.drl_pad-1" x="124430" y="-46170"/>
    <use xlink:href="#1bitsy-rr.drl_pad-1" x="124430" y="-47070"/>
    <use xlink:href="#1bitsy-rr.drl_pad-1" x="124430" y="-47970"/>
    <use xlink:href="#1bitsy-rr.drl_pad-1" x="125180" y="-50070"/>
    <use xlink:href="#1bitsy-rr.drl_pad-1" x="125230" y="-41370"/>
    <use xlink:href="#1bitsy-rr.drl_pad-1" x="125230" y="-43920"/>
    <use xlink:href="#1bitsy-rr.drl_pad-1" x="125230" y="-44820"/>
    <use xlink:href="#1bitsy-rr.drl_pad-1" x="125230" y="-45720"/>
    <use xlink:href="#1bitsy-rr.drl_pad-1" x="125230" y="-47520"/>
    <use xlink:href="#1bitsy-rr.drl_pad-1" x="126128" y="-41370"/>
    <use xlink:href="#1bitsy-rr.drl_pad-1" x="127780" y="-41370"/>
    <use xlink:href="#1bitsy-rr.drl_pad-1" x="131050" y="-44000"/>
    <use xlink:href="#1bitsy-rr.drl_pad-2" x="102830" y="-51020"/>
    <use xlink:href="#1bitsy-rr.drl_pad-2" x="103230" y="-41220"/>
    <use xlink:href="#1bitsy-rr.drl_pad-2" x="105080" y="-50521"/>
    <use xlink:href="#1bitsy-rr.drl_pad-2" x="110730" y="-41120"/>
    <use xlink:href="#1bitsy-rr.drl_pad-2" x="112700" y="-50267"/>
    <use xlink:href="#1bitsy-rr.drl_pad-2" x="115350" y="-40750"/>
    <use xlink:href="#1bitsy-rr.drl_pad-2" x="119230" y="-45370"/>
    <use xlink:href="#1bitsy-rr.drl_pad-2" x="119330" y="-44470"/>
    <use xlink:href="#1bitsy-rr.drl_pad-2" x="122180" y="-45720"/>
    <use xlink:href="#1bitsy-rr.drl_pad-2" x="122330" y="-43270"/>
    <use xlink:href="#1bitsy-rr.drl_pad-2" x="123430" y="-48020"/>
    <use xlink:href="#1bitsy-rr.drl_pad-2" x="124400" y="-49900"/>
    <use xlink:href="#1bitsy-rr.drl_pad-2" x="126180" y="-47120"/>
    <use xlink:href="#1bitsy-rr.drl_pad-2" x="126924" y="-50343"/>
    <use xlink:href="#1bitsy-rr.drl_pad-2" x="130080" y="-41020"/>
    <use xlink:href="#1bitsy-rr.drl_pad-2" x="130230" y="-48020"/>
    <use xlink:href="#1bitsy-rr.drl_pad-2" x="135890" y="-39370"/>
    <use xlink:href="#1bitsy-rr.drl_pad-3" x="101600" y="-38100"/>
    <use xlink:href="#1bitsy-rr.drl_pad-3" x="101600" y="-53340"/>
    <use xlink:href="#1bitsy-rr.drl_pad-3" x="104130" y="-53340"/>
    <use xlink:href="#1bitsy-rr.drl_pad-3" x="104140" y="-38100"/>
    <use xlink:href="#1bitsy-rr.drl_pad-3" x="106680" y="-38100"/>
    <use xlink:href="#1bitsy-rr.drl_pad-3" x="106680" y="-53340"/>
    <use xlink:href="#1bitsy-rr.drl_pad-3" x="109220" y="-38100"/>
    <use xlink:href="#1bitsy-rr.drl_pad-3" x="109220" y="-50800"/>
    <use xlink:href="#1bitsy-rr.drl_pad-3" x="109220" y="-53340"/>
    <use xlink:href="#1bitsy-rr.drl_pad-3" x="111760" y="-38100"/>
    <use xlink:href="#1bitsy-rr.drl_pad-3" x="111760" y="-53340"/>
    <use xlink:href="#1bitsy-rr.drl_pad-3" x="114300" y="-38100"/>
    <use xlink:href="#1bitsy-rr.drl_pad-3" x="114300" y="-53340"/>
    <use xlink:href="#1bitsy-rr.drl_pad-3" x="116840" y="-38100"/>
    <use xlink:href="#1bitsy-rr.drl_pad-3" x="116840" y="-53340"/>
    <use xlink:href="#1bitsy-rr.drl_pad-3" x="119380" y="-38100"/>
    <use xlink:href="#1bitsy-rr.drl_pad-3" x="119380" y="-53340"/>
    <use xlink:href="#1bitsy-rr.drl_pad-3" x="121920" y="-38100"/>
    <use xlink:href="#1bitsy-rr.drl_pad-3" x="121920" y="-53340"/>
    <use xlink:href="#1bitsy-rr.drl_pad-3" x="124460" y="-38100"/>
    <use xlink:href="#1bitsy-rr.drl_pad-3" x="124460" y="-53340"/>
    <use xlink:href="#1bitsy-rr.drl_pad-3" x="127000" y="-38100"/>
    <use xlink:href="#1bitsy-rr.drl_pad-3" x="127000" y="-53340"/>
    <use xlink:href="#1bitsy-rr.drl_pad-3" x="129540" y="-38100"/>
    <use xlink:href="#1bitsy-rr.drl_pad-3" x="129540" y="-50800"/>
    <use xlink:href="#1bitsy-rr.drl_pad-3" x="129540" y="-53340"/>
    <use xlink:href="#1bitsy-rr.drl_pad-3" x="132080" y="-38100"/>
    <use xlink:href="#1bitsy-rr.drl_pad-3" x="132080" y="-40640"/>
    <use xlink:href="#1bitsy-rr.drl_pad-3" x="132080" y="-50800"/>
    <use xlink:href="#1bitsy-rr.drl_pad-3" x="132080" y="-53340"/>
    <use xlink:href="#1bitsy-rr.drl_pad-3" x="134620" y="-38100"/>
    <use xlink:href="#1bitsy-rr.drl_pad-3" x="134620" y="-40640"/>
    <use xlink:href="#1bitsy-rr.drl_pad-3" x="134620" y="-43180"/>
    <use xlink:href="#1bitsy-rr.drl_pad-3" x="134620" y="-45720"/>
    <use xlink:href="#1bitsy-rr.drl_pad-3" x="134620" y="-48260"/>
    <use xlink:href="#1bitsy-rr.drl_pad-3" x="134620" y="-50800"/>
    <use xlink:href="#1bitsy-rr.drl_pad-3" x="134620" y="-53340"/>
    <use xlink:href="#1bitsy-rr.drl_pad-3" x="137160" y="-38100"/>
    <use xlink:href="#1bitsy-rr.drl_pad-3" x="137160" y="-40640"/>
    <use xlink:href="#1bitsy-rr.drl_pad-3" x="137160" y="-43180"/>
    <use xlink:href="#1bitsy-rr.drl_pad-3" x="137160" y="-45720"/>
    <use xlink:href="#1bitsy-rr.drl_pad-3" x="137160" y="-48260"/>
    <use xlink:href="#1bitsy-rr.drl_pad-3" x="137160" y="-50800"/>
    <use xlink:href="#1bitsy-rr.drl_pad-3" x="137160" y="-53340"/>
  </g>
</svg>
